<svg  version="1.0" xmlns="http://www.w3.org/2000/svg"
      width="500" height="500" viewBox="0 0 500.000000 500.000000"
>



    <path d="M28.34 56.68h28.34V36.12H28.34a7.79 7.79 0 1 1 0-15.58h19.84v9.05h8.5V12H28.34a16.29 16.29 0 0 0 0 32.58h19.84v3.56H28.34a19.84 19.84 0 0 1 0-39.68h28.34V0H28.34a28.34 28.34 0 0 0 0 56.68z"
          fill="#2c3e50"
          transform="translate(124, 60) scale(4,4)"
    ></path>
    <path d="M13.00-21.91L21.24-21.91L21.24-17.23L14.04-17.23Q10.39-17.23 9-15.62L9-15.62Q7.65-14.08 7.65-10.93L7.65-10.93Q7.65-7.42 9.86-5.80L9.86-5.80Q10.75-5.17 11.81-4.93Q12.87-4.68 14.76-4.68L14.76-4.68L21.24-4.68L21.24 0L13.00 0Q9.67 0 7.74-0.67Q5.80-1.35 4.32-3.01L4.32-3.01Q1.48-6.17 1.48-11.03L1.48-11.03Q1.48-16.88 4.86-19.75L4.86-19.75Q6.21-20.93 8.10-21.42Q9.99-21.91 13.00-21.91L13.00-21.91ZM31.05-13.32L43.74-13.32L43.74-8.64L31.05-8.64Q31.23-6.48 32.44-5.58Q33.66-4.68 36.41-4.68L36.41-4.68L43.74-4.68L43.74 0L35.73 0Q33.12 0 31.48-0.47Q29.83-0.94 28.39-2.02L28.39-2.02Q24.39-5.13 24.39-11.25L24.39-11.25Q24.39-15.21 26.50-18.18L26.50-18.18Q27.94-20.20 29.97-21.06Q31.99-21.91 35.28-21.91L35.28-21.91L43.74-21.91L43.74-17.23L35.73-17.23Q33.25-17.23 32.27-16.40Q31.27-15.57 31.05-13.32L31.05-13.32ZM48.64 0L48.64-21.91L57.55-21.91Q60.30-21.91 61.81-21.53Q63.31-21.15 64.31-20.25L64.31-20.25Q65.30-19.35 65.70-18Q66.10-16.65 66.10-14.13L66.10-14.13L66.10-12.01L60.30-12.01L60.30-13.18Q60.30-15.52 59.49-16.38Q58.68-17.23 56.38-17.23L56.38-17.23L54.67-17.23L54.67 0L48.64 0ZM67.50-21.91L71.33-21.91L71.33-30.02L77.36-30.02L77.36-21.91L82.94-21.91L82.94-17.23L77.36-17.23L77.36-9.27Q77.36-6.48 77.85-5.76L77.85-5.76Q78.61-4.68 80.55-4.68L80.55-4.68L82.94-4.68L82.94 0L78.57 0Q74.66 0 72.99-1.89Q71.33-3.78 71.33-8.23L71.33-8.23L71.33-17.23L67.50-17.23L67.50-21.91ZM96.08-21.91L101.75-21.91L101.75-30.02L107.73-30.02L107.73 0L97.38 0Q94.23 0 92.61-0.49L92.61-0.49Q88.78-1.71 86.90-5.26L86.90-5.26Q85.59-7.65 85.59-11.12L85.59-11.12Q85.59-16.74 89.37-19.84L89.37-19.84Q91.84-21.91 96.08-21.91L96.08-21.91ZM97.38-4.68L101.75-4.68L101.75-17.23L97.38-17.23Q94.50-17.23 93.02-15.30L93.02-15.30Q91.71-13.68 91.71-11.12L91.71-11.12Q91.71-7.38 93.87-5.76L93.87-5.76Q95.36-4.68 97.38-4.68L97.38-4.68Z"
          fill="#2c3e50"
          transform="translate(28, 430) scale(4,4)"

    ></path>

</svg>
