<svg version="1.0" xmlns="http://www.w3.org/2000/svg"
     width="800" height="300" viewBox="0 0 800.000000 300.000000"
>

<g fill="#333">
    <path d="M28.34 56.68h28.34V36.12H28.34a7.79 7.79 0 1 1 0-15.58h19.84v9.05h8.5V12H28.34a16.29 16.29 0 0 0 0 32.58h19.84v3.56H28.34a19.84 19.84 0 0 1 0-39.68h28.34V0H28.34a28.34 28.34 0 0 0 0 56.68z"
          transform="translate(40, 40) scale(4,4)"
    ></path>
    <g  transform="translate(280, 260) scale(2,2)">
        <path d="M28.95-58.70L49.98-58.70L49.98-48.22L33.70-48.22Q27.37-48.22 24.46-47.34Q21.56-46.46 19.62-43.91L19.62-43.91Q18.30-42.15 17.82-40.39Q17.34-38.63 16.98-34.41L16.98-34.41L49.98-34.41L49.98-23.94L16.98-23.94Q17.69-16.37 21.47-13.42Q25.26-10.47 34.32-10.47L34.32-10.47L49.98-10.47L49.98 0L33.70 0Q27.10 0 22.09-0.79L22.09-0.79Q14.17-2.11 9.50-7.74L9.50-7.74Q2.82-15.84 2.82-29.66L2.82-29.66Q2.82-44.97 12.23-53.50L12.23-53.50Q15.49-56.41 19.14-57.55Q22.79-58.70 28.95-58.70L28.95-58.70Z"
              transform="translate(0 0) "

        ></path>
        <path d="M28.51-22.26L18.48-22.26L18.48 0L5.98 0L5.98-58.70L34.67-58.70Q46.99-58.70 51.83-55.53L51.83-55.53Q55.18-53.42 56.98-49.94Q58.78-46.46 58.78-42.33L58.78-42.33Q58.78-33.97 54.56-29.39L54.56-29.39Q51.92-26.66 47.61-25.26L47.61-25.26Q51.04-24.02 52.80-22.66Q54.56-21.30 55.97-18.66L55.97-18.66Q57.02-16.54 57.51-14.61Q57.99-12.67 58.26-8.89L58.26-8.89Q58.78-2.55 59.66 0L59.66 0L45.67 0Q45.06-2.02 44.35-8.36L44.35-8.36Q43.91-13.46 42.55-16.19Q41.18-18.92 38.46-20.50L38.46-20.50Q35.02-22.35 28.51-22.26L28.51-22.26ZM18.48-48.22L18.48-32.74L35.99-32.74Q40.39-32.74 42.24-34.06L42.24-34.06Q45.06-35.99 45.06-40.83L45.06-40.83Q45.06-46.20 40.83-47.70L40.83-47.70Q39.34-48.22 35.99-48.22L35.99-48.22L18.48-48.22Z"
              transform="translate(58.855999999999995 0) "

        ></path>
        <path d="M19.01 0L19.01-48.22L0.35-48.22L0.35-58.70L50.95-58.70L50.95-48.22L31.50-48.22L31.50 0L19.01 0Z"
              transform="translate(126.68799999999999 0) "
        ></path>
        <path d="M5.98 0L5.98-58.70L30.89-58.70Q40.22-58.70 45.32-56.85L45.32-56.85Q54.74-53.42 57.90-44.26L57.90-44.26Q60.28-37.22 60.28-29.22L60.28-29.22Q60.28-21.30 57.99-14.26L57.99-14.26Q55.70-7.04 50.42-3.61L50.42-3.61Q47.08-1.50 43.08-0.75Q39.07 0 30.89 0L30.89 0L5.98 0ZM30.89-48.22L18.48-48.22L18.48-10.47L30.89-10.47Q39.07-10.47 42.24-14.08L42.24-14.08Q44.18-16.37 45.36-20.50Q46.55-24.64 46.55-29.30L46.55-29.30Q46.55-34.50 45.14-38.81Q43.74-43.12 41.45-45.23L41.45-45.23Q38.10-48.22 30.89-48.22L30.89-48.22Z"
              transform="translate(183.07999999999998 0) "
        ></path>
    </g>
    <!--    <path d="M13.00-21.91L21.24-21.91L21.24-17.23L14.04-17.23Q10.39-17.23-->
    <!--    9-15.62L9-15.62Q7.65-14.08-->
    <!--    7.65-10.93L7.65-10.93Q7.65-7.42 9.86-5.80L9.86-5.80Q10.75-5.17-->
    <!--    11.81-4.93Q12.87-4.68-->
    <!--    14.76-4.68L14.76-4.68L21.24-4.68L21.24-->
    <!--    0L13.00 0Q9.67 0 7.74-0.67Q5.80-1.35-->
    <!--    4.32-3.01L4.32-3.01Q1.48-6.17-->
    <!--    1.48-11.03L1.48-11.03Q1.48-16.88-->
    <!--    4.86-19.75L4.86-19.75Q6.21-20.93-->
    <!--    8.10-21.42Q9.99-21.91-->
    <!--    13.00-21.91L13.00-21.91ZM31.05-13.32L43.74-13.32L43.74-8.64L31.05-8.64Q31.23-6.48-->
    <!--     32.44-5.58Q33.66-4.68 36.41-4.68L36.41-4.68L43.74-4.68L43.74 0L35.73 0Q33.12 0 31.48-0.47Q29.83-0.94 28.39-2.02L28.39-2.02Q24.39-5.13 24.39-11.25L24.39-11.25Q24.39-15.21 26.50-18.18L26.50-18.18Q27.94-20.20 29.97-21.06Q31.99-21.91 35.28-21.91L35.28-21.91L43.74-21.91L43.74-17.23L35.73-17.23Q33.25-17.23 32.27-16.40Q31.27-15.57 31.05-13.32L31.05-13.32ZM48.64 0L48.64-21.91L57.55-21.91Q60.30-21.91 61.81-21.53Q63.31-21.15 64.31-20.25L64.31-20.25Q65.30-19.35 65.70-18Q66.10-16.65 66.10-14.13L66.10-14.13L66.10-12.01L60.30-12.01L60.30-13.18Q60.30-15.52 59.49-16.38Q58.68-17.23 56.38-17.23L56.38-17.23L54.67-17.23L54.67 0L48.64 0ZM67.50-21.91L71.33-21.91L71.33-30.02L77.36-30.02L77.36-21.91L82.94-21.91L82.94-17.23L77.36-17.23L77.36-9.27Q77.36-6.48 77.85-5.76L77.85-5.76Q78.61-4.68 80.55-4.68L80.55-4.68L82.94-4.68L82.94 0L78.57 0Q74.66 0 72.99-1.89Q71.33-3.78 71.33-8.23L71.33-8.23L71.33-17.23L67.50-17.23L67.50-21.91ZM96.08-21.91L101.75-21.91L101.75-30.02L107.73-30.02L107.73 0L97.38 0Q94.23 0 92.61-0.49L92.61-0.49Q88.78-1.71 86.90-5.26L86.90-5.26Q85.59-7.65 85.59-11.12L85.59-11.12Q85.59-16.74 89.37-19.84L89.37-19.84Q91.84-21.91 96.08-21.91L96.08-21.91ZM97.38-4.68L101.75-4.68L101.75-17.23L97.38-17.23Q94.50-17.23 93.02-15.30L93.02-15.30Q91.71-13.68 91.71-11.12L91.71-11.12Q91.71-7.38 93.87-5.76L93.87-5.76Q95.36-4.68 97.38-4.68L97.38-4.68Z"-->
    <!--          fill="#2c3e50"-->
    <!--          transform="translate(300, 270) scale(4,4)"-->

    <!--    ></path>-->
    <text x="300" y="100"  font-size="50" font-weight="bold">让你的证书永不过期</text>

</g>
   </svg>
